<?xml version="1.0" encoding="UTF-8" standalone="no"?>
<!-- Created with Inkscape (http://www.inkscape.org/) -->

<svg
   xmlns:dc="http://purl.org/dc/elements/1.1/"
   xmlns:cc="http://creativecommons.org/ns#"
   xmlns:rdf="http://www.w3.org/1999/02/22-rdf-syntax-ns#"
   xmlns:svg="http://www.w3.org/2000/svg"
   xmlns="http://www.w3.org/2000/svg"
   xmlns:xlink="http://www.w3.org/1999/xlink"
   xmlns:sodipodi="http://sodipodi.sourceforge.net/DTD/sodipodi-0.dtd"
   xmlns:inkscape="http://www.inkscape.org/namespaces/inkscape"
   id="svg2"
   version="1.1"
   inkscape:version="0.91 r13725"
   xml:space="preserve"
   width="2939.1067"
   height="1949.1876"
   viewBox="0 0 2939.1067 1949.1876"
   sodipodi:docname="phoenix.svg"
   inkscape:export-filename="/home/eric/data/WORK/PROJECT/TOOL/PHOENIX/LOGO/phoenix.png"
   inkscape:export-xdpi="90"
   inkscape:export-ydpi="90"><metadata
     id="metadata8"><rdf:RDF><cc:Work
         rdf:about=""><dc:format>image/svg+xml</dc:format><dc:type
           rdf:resource="http://purl.org/dc/dcmitype/StillImage" /><dc:title /></cc:Work></rdf:RDF></metadata><defs
     id="defs6"><linearGradient
       id="linearGradient4157"
       inkscape:collect="always"><stop
         id="stop4159"
         offset="0"
         style="stop-color:#ff2020;stop-opacity:1" /><stop
         id="stop4163"
         offset="1"
         style="stop-color:#ff9920;stop-opacity:1" /></linearGradient><linearGradient
       inkscape:collect="always"
       id="linearGradient4316"><stop
         style="stop-color:#ff9a20;stop-opacity:1"
         offset="0"
         id="stop4318" /><stop
         id="stop4324"
         offset="0.50968331"
         style="stop-color:#ff2020;stop-opacity:1" /><stop
         style="stop-color:#ff9920;stop-opacity:1"
         offset="1"
         id="stop4320" /></linearGradient><clipPath
       clipPathUnits="userSpaceOnUse"
       id="clipPath16"><path
         d="m 0,2400 2400,0 L 2400,0 0,0 0,2400 Z"
         id="path18"
         inkscape:connector-curvature="0" /></clipPath><clipPath
       clipPathUnits="userSpaceOnUse"
       id="clipPath34"><path
         d="m 0,2400 2400,0 L 2400,0 0,0 0,2400 Z"
         id="path36"
         inkscape:connector-curvature="0" /></clipPath><clipPath
       clipPathUnits="userSpaceOnUse"
       id="clipPath56"><path
         d="m 0,2400 2400,0 L 2400,0 0,0 0,2400 Z"
         id="path58"
         inkscape:connector-curvature="0" /></clipPath><clipPath
       clipPathUnits="userSpaceOnUse"
       id="clipPath74"><path
         d="m 0,2400 2400,0 L 2400,0 0,0 0,2400 Z"
         id="path76"
         inkscape:connector-curvature="0" /></clipPath><linearGradient
       inkscape:collect="always"
       xlink:href="#linearGradient4316"
       id="linearGradient4322"
       x1="2233.6833"
       y1="-2101.1331"
       x2="453.97421"
       y2="-2097.6116"
       gradientUnits="userSpaceOnUse" /><clipPath
       clipPathUnits="userSpaceOnUse"
       id="clipPath4209"><g
         style="fill:#ff0000;fill-opacity:1"
         clip-path="url(#clipPath16)"
         id="g4211"
         transform="matrix(2.0635153,0,0,-2.151038,-169.69721,2054.9341)"><g
           style="fill:#ff0000;fill-opacity:1"
           transform="translate(669.7393,1603.146)"
           id="g4213"><path
             inkscape:connector-curvature="0"
             id="path4215"
             style="fill:#ff0000;fill-opacity:1;fill-rule:nonzero;stroke:none"
             d="M 0,0 -19.792,9.871 3.162,14.913 24.615,4.216 0,0 Z M 493.46,260.286 C 433.151,169.83 293.361,115.006 183.714,97.188 157.418,27.065 116.201,-33.374 48.226,-54.819 l -5.551,40.711 22.673,7.817 18.465,-3.62 -11.752,30.224 -35.261,0 -7.558,15.952 -79.756,0 -20.045,-89.081 c -64.423,23.033 -103.965,81.971 -129.483,150.007 -109.646,17.815 -249.437,72.639 -309.746,163.099 -8.857,-26.08 -11.448,-51.575 -9.167,-76.248 41.26,-45.857 98.436,-82.05 151.715,-88.222 -41.881,-3.104 -88.583,2.159 -132.428,19.461 9.607,-20.508 22.254,-40.127 37.06,-58.685 41.245,-13.781 87.673,-19.858 151.563,-8.749 -35.551,-20.146 -75.05,-30.057 -113.213,-32.836 16.769,-15.938 34.828,-30.78 53.452,-44.357 27.841,-1.834 56.989,3.364 84.859,23.055 -9.817,-17.872 -24.788,-36.914 -46.407,-48.911 12.647,-7.832 25.3,-15.094 37.745,-21.67 5.89,-3.11 11.708,-6.243 17.526,-9.376 28.151,5.572 42.61,19.8 52.448,33.861 2.909,-17.432 -6.496,-37.015 -23.416,-49.77 102.27,-57.105 189.778,-117.024 239.887,-170.707 50.11,53.683 137.618,113.598 239.888,170.707 -16.92,12.755 -26.326,32.338 -23.417,49.766 9.839,-14.057 24.297,-28.288 52.449,-33.861 5.818,3.137 11.636,6.27 17.525,9.38 12.446,6.573 25.099,13.834 37.745,21.67 -21.618,11.997 -36.589,31.035 -46.406,48.911 27.87,-19.695 57.018,-24.892 84.859,-23.055 18.623,13.577 36.683,28.415 53.452,44.357 -38.163,2.779 -77.662,12.69 -113.213,32.836 63.889,-11.109 110.318,-5.035 151.563,8.749 14.805,18.558 27.451,38.177 37.059,58.681 -43.844,-17.302 -90.546,-22.565 -132.427,-19.461 53.278,6.176 110.455,42.365 151.715,88.226 2.279,24.669 -0.311,50.165 -9.168,76.244" /></g></g></clipPath><radialGradient
       inkscape:collect="always"
       xlink:href="#linearGradient4157"
       id="radialGradient4155"
       cx="1190.3889"
       cy="-902.56683"
       fx="1190.3889"
       fy="-902.56683"
       r="1055.6427"
       gradientTransform="matrix(1.0144342,-0.0055758,0.00435,0.79142071,-13.256208,-399.70081)"
       gradientUnits="userSpaceOnUse" /></defs><sodipodi:namedview
     pagecolor="#ffffff"
     bordercolor="#666666"
     borderopacity="1"
     objecttolerance="10"
     gridtolerance="10"
     guidetolerance="10"
     inkscape:pageopacity="0"
     inkscape:pageshadow="2"
     inkscape:window-width="1920"
     inkscape:window-height="1056"
     id="namedview4"
     showgrid="false"
     inkscape:zoom="0.31466666"
     inkscape:cx="1305.7183"
     inkscape:cy="905.85186"
     inkscape:window-x="0"
     inkscape:window-y="0"
     inkscape:window-maximized="1"
     inkscape:current-layer="g10"
     fit-margin-top="150"
     fit-margin-left="150"
     fit-margin-right="150"
     fit-margin-bottom="150"
     showguides="false" /><g
     id="g10"
     inkscape:groupmode="layer"
     inkscape:label="eagle"
     transform="matrix(1.25,0,0,-1.25,-24.788616,2807.3789)"
     style="display:inline"><path
       transform="scale(1,-1)"
       style="opacity:1;fill:url(#radialGradient4155);fill-opacity:1;stroke:none"
       d="m 19.830893,-2247.5701 2364.406707,0 0,1571.18643 -2364.406707,0 z"
       id="rect4206"
       clip-path="url(#clipPath4209)" /></g><g
     inkscape:groupmode="layer"
     id="layer1"
     inkscape:label="title"
     style="display:inline"><text
       transform="matrix(1.2243056,0,0,1.2762336,-24.788616,2807.3789)"
       style="font-variant:normal;font-weight:normal;font-stretch:normal;font-size:353.94613647px;font-family:Times;-inkscape-font-specification:Times-Roman;writing-mode:lr-tb;display:inline;fill:#ff3f20;fill-opacity:1;fill-rule:nonzero;stroke:none"
       id="text24"
       x="447.20383"
       y="-1842.9365"><tspan
         x="447.20383"
         sodipodi:role="line"
         id="tspan28"
         y="-1842.9365"
         style="fill:#ff3f20;fill-opacity:1">PHOENIX</tspan></text>
</g></svg>