<?xml version="1.0" encoding="UTF-8" standalone="no"?>
<!-- Generator: Adobe Illustrator 19.0.0, SVG Export Plug-In . SVG Version: 6.00 Build 0)  -->

<svg
   xmlns:dc="http://purl.org/dc/elements/1.1/"
   xmlns:cc="http://creativecommons.org/ns#"
   xmlns:rdf="http://www.w3.org/1999/02/22-rdf-syntax-ns#"
   xmlns:svg="http://www.w3.org/2000/svg"
   xmlns="http://www.w3.org/2000/svg"
   xmlns:sodipodi="http://sodipodi.sourceforge.net/DTD/sodipodi-0.dtd"
   xmlns:inkscape="http://www.inkscape.org/namespaces/inkscape"
   version="1.1"
   id="Capa_1"
   x="0px"
   y="0px"
   viewBox="0 0 394.971 394.971"
   style="enable-background:new 0 0 394.971 394.971;"
   xml:space="preserve"
   sodipodi:docname="section_icon.svg"
   inkscape:version="0.92.3 (2405546, 2018-03-11)"><metadata
   id="metadata55"><rdf:RDF><cc:Work
       rdf:about=""><dc:format>image/svg+xml</dc:format><dc:type
         rdf:resource="http://purl.org/dc/dcmitype/StillImage" /></cc:Work></rdf:RDF></metadata><defs
   id="defs53" /><sodipodi:namedview
   pagecolor="#ffffff"
   bordercolor="#666666"
   borderopacity="1"
   objecttolerance="10"
   gridtolerance="10"
   guidetolerance="10"
   inkscape:pageopacity="0"
   inkscape:pageshadow="2"
   inkscape:window-width="640"
   inkscape:window-height="480"
   id="namedview51"
   showgrid="false"
   inkscape:zoom="2.8153965"
   inkscape:cx="99.275537"
   inkscape:cy="197.4855"
   inkscape:current-layer="Capa_1" />
<g
   id="g18"
   style="fill:#fffff5;fill-opacity:1">
	<g
   id="g16"
   style="fill:#fffff5;fill-opacity:1">
		<g
   id="g14"
   style="fill:#fffff5;fill-opacity:1">
			<path
   d="M56.424,146.286c-28.277,0-51.2,22.923-51.2,51.2s22.923,51.2,51.2,51.2s51.2-22.923,51.2-51.2     S84.701,146.286,56.424,146.286z M56.424,227.788L56.424,227.788c-16.735,0-30.302-13.567-30.302-30.302     s13.567-30.302,30.302-30.302c16.735,0,30.302,13.567,30.302,30.302S73.16,227.788,56.424,227.788z"
   id="path2"
   style="fill:#fffff5;fill-opacity:1" />
			<path
   d="M379.298,187.037H143.151c-5.771,0-10.449,4.678-10.449,10.449s4.678,10.449,10.449,10.449h236.147     c5.771,0,10.449-4.678,10.449-10.449S385.069,187.037,379.298,187.037z"
   id="path4"
   style="fill:#fffff5;fill-opacity:1" />
			<path
   d="M56.424,0c-28.277,0-51.2,22.923-51.2,51.2s22.923,51.2,51.2,51.2s51.2-22.923,51.2-51.2S84.701,0,56.424,0z      M56.424,81.502c-16.735,0-30.302-13.567-30.302-30.302s13.567-30.302,30.302-30.302S86.726,34.465,86.726,51.2     S73.16,81.502,56.424,81.502z"
   id="path6"
   style="fill:#fffff5;fill-opacity:1" />
			<path
   d="M143.151,61.649h236.147c5.771,0,10.449-4.678,10.449-10.449s-4.678-10.449-10.449-10.449H143.151     c-5.771,0-10.449,4.678-10.449,10.449S137.38,61.649,143.151,61.649z"
   id="path8"
   style="fill:#fffff5;fill-opacity:1" />
			<path
   d="M56.424,292.571c-28.277,0-51.2,22.923-51.2,51.2c0,28.277,22.923,51.2,51.2,51.2s51.2-22.923,51.2-51.2     C107.624,315.494,84.701,292.571,56.424,292.571z M86.726,343.771c0,16.735-13.567,30.302-30.302,30.302v0     c-16.735,0-30.302-13.567-30.302-30.302c0-16.735,13.567-30.302,30.302-30.302S86.726,327.036,86.726,343.771L86.726,343.771z"
   id="path10"
   style="fill:#fffff5;fill-opacity:1" />
			<path
   d="M379.298,333.322H143.151c-5.771,0-10.449,4.678-10.449,10.449s4.678,10.449,10.449,10.449h236.147     c5.771,0,10.449-4.678,10.449-10.449S385.069,333.322,379.298,333.322z"
   id="path12"
   style="fill:#fffff5;fill-opacity:1" />
		</g>
	</g>
</g>
<g
   id="g20"
   style="fill:#fffff5;fill-opacity:1">
</g>
<g
   id="g22"
   style="fill:#fffff5;fill-opacity:1">
</g>
<g
   id="g24"
   style="fill:#fffff5;fill-opacity:1">
</g>
<g
   id="g26"
   style="fill:#fffff5;fill-opacity:1">
</g>
<g
   id="g28"
   style="fill:#fffff5;fill-opacity:1">
</g>
<g
   id="g30"
   style="fill:#fffff5;fill-opacity:1">
</g>
<g
   id="g32"
   style="fill:#fffff5;fill-opacity:1">
</g>
<g
   id="g34"
   style="fill:#fffff5;fill-opacity:1">
</g>
<g
   id="g36"
   style="fill:#fffff5;fill-opacity:1">
</g>
<g
   id="g38"
   style="fill:#fffff5;fill-opacity:1">
</g>
<g
   id="g40"
   style="fill:#fffff5;fill-opacity:1">
</g>
<g
   id="g42"
   style="fill:#fffff5;fill-opacity:1">
</g>
<g
   id="g44"
   style="fill:#fffff5;fill-opacity:1">
</g>
<g
   id="g46"
   style="fill:#fffff5;fill-opacity:1">
</g>
<g
   id="g48"
   style="fill:#fffff5;fill-opacity:1">
</g>
</svg>