<?xml version="1.0" encoding="UTF-8" standalone="no"?>
<svg
   xmlns:dc="http://purl.org/dc/elements/1.1/"
   xmlns:cc="http://creativecommons.org/ns#"
   xmlns:rdf="http://www.w3.org/1999/02/22-rdf-syntax-ns#"
   xmlns:svg="http://www.w3.org/2000/svg"
   xmlns="http://www.w3.org/2000/svg"
   xmlns:sodipodi="http://sodipodi.sourceforge.net/DTD/sodipodi-0.dtd"
   xmlns:inkscape="http://www.inkscape.org/namespaces/inkscape"
   height="682pt"
   viewBox="-21 -47 682.66669 682"
   width="682pt"
   version="1.1"
   id="svg10"
   sodipodi:docname="comment_icon.svg"
   inkscape:version="0.92.3 (2405546, 2018-03-11)">
  <metadata
     id="metadata16">
    <rdf:RDF>
      <cc:Work
         rdf:about="">
        <dc:format>image/svg+xml</dc:format>
        <dc:type
           rdf:resource="http://purl.org/dc/dcmitype/StillImage" />
      </cc:Work>
    </rdf:RDF>
  </metadata>
  <defs
     id="defs14" />
  <sodipodi:namedview
     pagecolor="#ffffff"
     bordercolor="#666666"
     borderopacity="1"
     objecttolerance="10"
     gridtolerance="10"
     guidetolerance="10"
     inkscape:pageopacity="0"
     inkscape:pageshadow="2"
     inkscape:window-width="640"
     inkscape:window-height="480"
     id="namedview12"
     showgrid="false"
     inkscape:zoom="0.25953079"
     inkscape:cx="454.66667"
     inkscape:cy="454.66667"
     inkscape:current-layer="svg10" />
  <path
     d="m552.011719-1.332031h-464.023438c-48.515625 0-87.988281 39.464843-87.988281 87.988281v283.972656c0 48.414063 39.300781 87.816406 87.675781 87.988282v128.863281l185.191407-128.863281h279.144531c48.515625 0 87.988281-39.472657 87.988281-87.988282v-283.972656c0-48.523438-39.472656-87.988281-87.988281-87.988281zm50.488281 371.960937c0 27.835938-22.648438 50.488282-50.488281 50.488282h-290.910157l-135.925781 94.585937v-94.585937h-37.1875c-27.839843 0-50.488281-22.652344-50.488281-50.488282v-283.972656c0-27.84375 22.648438-50.488281 50.488281-50.488281h464.023438c27.839843 0 50.488281 22.644531 50.488281 50.488281zm0 0"
     id="path2"
     style="fill:#ffffff;fill-opacity:1" />
  <path
     d="m171.292969 131.171875h297.414062v37.5h-297.414062zm0 0"
     id="path4"
     style="fill:#ffffff;fill-opacity:1" />
  <path
     d="m171.292969 211.171875h297.414062v37.5h-297.414062zm0 0"
     id="path6"
     style="fill:#ffffff;fill-opacity:1" />
  <path
     d="m171.292969 291.171875h297.414062v37.5h-297.414062zm0 0"
     id="path8"
     style="fill:#ffffff;fill-opacity:1" />
</svg>
