<?xml version="1.0" encoding="UTF-8" standalone="no"?>
<svg
   xmlns:dc="http://purl.org/dc/elements/1.1/"
   xmlns:cc="http://creativecommons.org/ns#"
   xmlns:rdf="http://www.w3.org/1999/02/22-rdf-syntax-ns#"
   xmlns:svg="http://www.w3.org/2000/svg"
   xmlns="http://www.w3.org/2000/svg"
   xmlns:sodipodi="http://sodipodi.sourceforge.net/DTD/sodipodi-0.dtd"
   xmlns:inkscape="http://www.inkscape.org/namespaces/inkscape"
   height="560pt"
   viewBox="-17 -101 560 560"
   width="560pt"
   version="1.1"
   id="svg4"
   sodipodi:docname="contact_icon.svg"
   inkscape:version="0.92.4 (5da689c313, 2019-01-14)">
  <metadata
     id="metadata10">
    <rdf:RDF>
      <cc:Work
         rdf:about="">
        <dc:format>image/svg+xml</dc:format>
        <dc:type
           rdf:resource="http://purl.org/dc/dcmitype/StillImage" />
      </cc:Work>
    </rdf:RDF>
  </metadata>
  <defs
     id="defs8" />
  <sodipodi:namedview
     pagecolor="#ffffff"
     bordercolor="#666666"
     borderopacity="1"
     objecttolerance="10"
     gridtolerance="10"
     guidetolerance="10"
     inkscape:pageopacity="0"
     inkscape:pageshadow="2"
     inkscape:window-width="1370"
     inkscape:window-height="786"
     id="namedview6"
     showgrid="false"
     inkscape:zoom="0.31607143"
     inkscape:cx="-431.86441"
     inkscape:cy="373.33333"
     inkscape:window-x="0"
     inkscape:window-y="0"
     inkscape:window-maximized="0"
     inkscape:current-layer="svg4" />
  <path
     d="m462.5-5.582031h-400c-34.511719.011719-62.484375 27.988281-62.5 62.5v233.371093c.015625 34.511719 27.988281 62.492188 62.5 62.5h400c34.511719-.007812 62.484375-27.988281 62.5-62.5v-233.371093c-.015625-34.511719-27.988281-62.488281-62.5-62.5zm-400 25h400c18.003906.046875 33.453125 12.824219 36.875 30.496093l-236.875 132.003907-236.875-132.003907c3.421875-17.671874 18.871094-30.449218 36.875-30.496093zm400 308.25h-400c-20.683594-.0625-37.441406-16.816407-37.5-37.5v-212l231.375 128.996093c1.875 1.03125 3.980469 1.59375 6.125 1.628907 2.152344.023437 4.265625-.539063 6.125-1.628907l231.375-128.996093v212c-.015625 20.703125-16.796875 37.480469-37.5 37.5zm0 0"
     id="path2"
     style="fill:#ffffff;fill-opacity:1;stroke:#ffffff;stroke-opacity:1;stroke-width:5.99999984;stroke-miterlimit:4;stroke-dasharray:none" />
</svg>
