<?xml version="1.0" encoding="UTF-8" standalone="no"?>
<svg
   xmlns:dc="http://purl.org/dc/elements/1.1/"
   xmlns:cc="http://creativecommons.org/ns#"
   xmlns:rdf="http://www.w3.org/1999/02/22-rdf-syntax-ns#"
   xmlns:svg="http://www.w3.org/2000/svg"
   xmlns="http://www.w3.org/2000/svg"
   xmlns:sodipodi="http://sodipodi.sourceforge.net/DTD/sodipodi-0.dtd"
   xmlns:inkscape="http://www.inkscape.org/namespaces/inkscape"
   id="_x31__x2C_5"
   enable-background="new 0 0 24 24"
   height="512"
   viewBox="0 0 24 24"
   width="512"
   version="1.1"
   sodipodi:docname="article_icon.svg"
   inkscape:version="0.92.3 (2405546, 2018-03-11)">
  <metadata
     id="metadata39">
    <rdf:RDF>
      <cc:Work
         rdf:about="">
        <dc:format>image/svg+xml</dc:format>
        <dc:type
           rdf:resource="http://purl.org/dc/dcmitype/StillImage" />
      </cc:Work>
    </rdf:RDF>
  </metadata>
  <defs
     id="defs37" />
  <sodipodi:namedview
     pagecolor="#ffffff"
     bordercolor="#666666"
     borderopacity="1"
     objecttolerance="10"
     gridtolerance="10"
     guidetolerance="10"
     inkscape:pageopacity="0"
     inkscape:pageshadow="2"
     inkscape:window-width="640"
     inkscape:window-height="480"
     id="namedview35"
     showgrid="false"
     inkscape:zoom="2.171875"
     inkscape:cx="128.69065"
     inkscape:cy="256"
     inkscape:current-layer="_x31__x2C_5" />
  <g
     id="g4"
     style="fill:#fffffc;fill-opacity:1">
    <path
       d="m9.25 10h-5.5c-.414 0-.75-.336-.75-.75s.336-.75.75-.75h5.5c.414 0 .75.336.75.75s-.336.75-.75.75z"
       id="path2"
       style="fill:#fffffc;fill-opacity:1" />
  </g>
  <g
     id="g8"
     style="fill:#fffffc;fill-opacity:1">
    <path
       d="m9.25 13h-5.5c-.414 0-.75-.336-.75-.75s.336-.75.75-.75h5.5c.414 0 .75.336.75.75s-.336.75-.75.75z"
       id="path6"
       style="fill:#fffffc;fill-opacity:1" />
  </g>
  <g
     id="g12"
     style="fill:#fffffc;fill-opacity:1">
    <path
       d="m9.25 16h-5.5c-.414 0-.75-.336-.75-.75s.336-.75.75-.75h5.5c.414 0 .75.336.75.75s-.336.75-.75.75z"
       id="path10"
       style="fill:#fffffc;fill-opacity:1" />
  </g>
  <g
     id="g16"
     style="fill:#fffffc;fill-opacity:1">
    <path
       d="m9.25 19h-5.5c-.414 0-.75-.336-.75-.75s.336-.75.75-.75h5.5c.414 0 .75.336.75.75s-.336.75-.75.75z"
       id="path14"
       style="fill:#fffffc;fill-opacity:1" />
  </g>
  <g
     id="g20"
     style="fill:#fffffc;fill-opacity:1">
    <path
       d="m21.25 23h-18.5c-1.517 0-2.75-1.233-2.75-2.75v-16.5c0-1.517 1.233-2.75 2.75-2.75h18.5c1.517 0 2.75 1.233 2.75 2.75v16.5c0 1.517-1.233 2.75-2.75 2.75zm-18.5-20.5c-.689 0-1.25.561-1.25 1.25v16.5c0 .689.561 1.25 1.25 1.25h18.5c.689 0 1.25-.561 1.25-1.25v-16.5c0-.689-.561-1.25-1.25-1.25z"
       id="path18"
       style="fill:#fffffc;fill-opacity:1" />
  </g>
  <g
     id="g24"
     style="fill:#fffffc;fill-opacity:1">
    <path
       d="m23.25 6h-22.5c-.414 0-.75-.336-.75-.75s.336-.75.75-.75h22.5c.414 0 .75.336.75.75s-.336.75-.75.75z"
       id="path22"
       style="fill:#fffffc;fill-opacity:1" />
  </g>
  <g
     id="g28"
     style="fill:#fffffc;fill-opacity:1">
    <path
       d="m12.75 18.15c-.192 0-.384-.073-.53-.22-.293-.293-.293-.768 0-1.061l1.54-1.54c.685-.684 1.797-.682 2.48 0 .055.056.217.18.375-.018l.52-.65c.658-.839 2.067-.845 2.735.006l.965 1.204c.259.323.208.795-.116 1.054-.323.261-.795.208-1.054-.116l-.97-1.21c-.134-.17-.261-.164-.384-.006l-.525.656c-.622.777-1.902.845-2.606.142-.098-.097-.262-.097-.36 0l-1.54 1.54c-.146.146-.338.219-.53.219z"
       id="path26"
       style="fill:#fffffc;fill-opacity:1" />
  </g>
  <g
     id="g32"
     style="fill:#fffffc;fill-opacity:1">
    <path
       d="m19.25 20h-5.5c-.965 0-1.75-.785-1.75-1.75v-8.5c0-.965.785-1.75 1.75-1.75h5.5c.965 0 1.75.785 1.75 1.75v8.5c0 .965-.785 1.75-1.75 1.75zm-5.5-10.5c-.138 0-.25.112-.25.25v8.5c0 .138.112.25.25.25h5.5c.138 0 .25-.112.25-.25v-8.5c0-.138-.112-.25-.25-.25z"
       id="path30"
       style="fill:#fffffc;fill-opacity:1" />
  </g>
</svg>
